<svg xmlns="http://www.w3.org/2000/svg" data-name="Layer 1" viewBox="0 0 512 512"><path fill="#fff" d="M256,72.948c-100.63818,0-182.51367,81.96289-182.51367,182.709S155.36182,438.36592,256,438.36592s182.51367-81.96289,182.51367-182.709S356.63818,72.948,256,72.948Zm0,350.418c-92.36719,0-167.51367-75.23389-167.51367-167.709S163.63281,87.948,256,87.948s167.51367,75.23388,167.51367,167.709S348.36719,423.36592,256,423.36592ZM333.93164,171.007a26.68717,26.68717,0,0,0-18.9956,7.86816l-96.5752,96.57471L197.06445,254.154a26.86453,26.86453,0,1,0-37.99218,37.99219l40.293,40.29248a26.86521,26.86521,0,0,0,37.99219,0L352.92773,216.86738A26.86426,26.86426,0,0,0,333.93164,171.007Zm8.38965,35.25391L226.75146,321.83125a11.86538,11.86538,0,0,1-16.77978.001l-40.293-40.29249a11.86475,11.86475,0,0,1,16.7793-16.77929l26.59961,26.59912a7.50021,7.50021,0,0,0,10.60644,0L325.543,189.48164a11.86441,11.86441,0,1,1,16.77832,16.7793Zm151.08935,2.20654c-5.58789-8.88037-10.86572-17.26856-13.57324-25.6167-2.87842-8.87549-3.60351-19.10107-4.3706-29.92725-1.19434-16.84912-2.42871-34.272-12.34864-47.91748-10.02587-13.7915-26.27392-20.34912-41.98681-26.69091-9.9834-4.0293-19.4126-7.835-26.82276-13.2334-7.2705-5.29737-13.70947-13.02735-20.52588-21.21143-10.91894-13.10791-22.209-26.6626-38.65576-32.00879-15.73535-5.11474-32.51562-.94678-48.7417,3.08545C276.165,17.486,265.59717,20.11152,256,20.11152S235.83447,17.486,225.61426,14.947c-16.22656-4.03125-33.00586-8.20019-48.7417-3.08545-16.44629,5.34619-27.73633,18.90039-38.65479,32.0083-6.81689,8.18409-13.25586,15.91407-20.52685,21.21192-7.41016,5.39843-16.83936,9.20459-26.82276,13.2334-15.71289,6.34179-31.96045,12.89941-41.98632,26.69091-9.91993,13.64551-11.1543,31.06836-12.34864,47.918-.76709,10.82617-1.49218,21.05176-4.3706,29.92725-2.70752,8.34765-7.98535,16.73584-13.57276,25.61621C9.4502,222.99238,0,238.01191,0,255.65693s9.4502,32.66455,18.58936,47.18946c5.58789,8.88037,10.86572,17.26855,13.57324,25.61669,2.87842,8.87549,3.60351,19.10108,4.3706,29.92725,1.19434,16.84912,2.42871,34.272,12.34864,47.91748,10.02587,13.79151,26.27392,20.34912,41.98681,26.69092,9.9834,4.0293,19.4126,7.835,26.82276,13.2334,7.2705,5.29736,13.70947,13.02734,20.52588,21.21142,10.91894,13.10791,22.209,26.6626,38.65576,32.00879,15.73486,5.11426,32.51465.9458,48.7417-3.08545,10.22021-2.53906,20.78808-5.16455,30.38525-5.16455s20.16553,2.62549,30.38574,5.16455c10.855,2.69678,21.9541,5.45459,32.82569,5.45459a51.08706,51.08706,0,0,0,15.916-2.36914c16.44629-5.34619,27.73633-18.90039,38.65479-32.0083,6.81689-8.18408,13.25586-15.91406,20.52685-21.21191,7.41016-5.39844,16.83936-9.20459,26.82276-13.2334,15.71289-6.3418,31.96045-12.89941,41.98632-26.69092,9.91993-13.64551,11.1543-31.06836,12.34864-47.918.76709-10.82617,1.49218-21.05176,4.3706-29.92724,2.70752-8.34766,7.98535-16.73584,13.57276-25.61621C502.5498,288.32148,512,273.30195,512,255.65693S502.5498,222.99238,493.41064,208.46748ZM480.71436,294.8581c-5.83106,9.26758-11.86133,18.85059-15.14551,28.97657-3.44336,10.6167-4.26758,22.24756-5.06446,33.49463-1.09277,15.42138-2.12548,29.98779-9.519,40.1582-7.49609,10.312-21.083,15.79541-35.46777,21.60107-10.38916,4.19336-21.13233,8.5293-30.04151,15.02-8.77343,6.39258-16.11718,15.209-23.21923,23.73535-9.9961,12.00049-19.4375,23.33545-31.76612,27.34278-11.6499,3.78808-25.6582.30761-40.48828-3.377-11.09619-2.75683-22.56982-5.60742-34.00244-5.60742s-22.90625,2.85059-34.00195,5.60694c-14.82862,3.685-28.83545,7.165-40.48828,3.37744-12.32911-4.00733-21.771-15.34278-31.76709-27.34375-7.10157-8.52588-14.44532-17.3418-23.21827-23.73389-8.90918-6.49121-19.65234-10.82715-30.0415-15.02051-14.38477-5.80566-27.97217-11.28906-35.46826-21.60107-7.39356-10.17041-8.42627-24.73633-9.519-40.15772-.79688-11.24755-1.6211-22.87793-5.06446-33.49462-3.28467-10.12647-9.31445-19.70948-15.14551-28.97754C22.91064,281.54756,15,268.97529,15,255.65693c0-13.31885,7.91064-25.89062,16.28564-39.20117,5.83106-9.26758,11.86133-18.85059,15.14551-28.97656,3.44336-10.6167,4.26758-22.24756,5.06446-33.49463,1.09277-15.42139,2.12548-29.98779,9.519-40.1582,7.49609-10.312,21.083-15.79541,35.46777-21.60108,10.38916-4.19336,21.13233-8.5293,30.04151-15.02,8.77343-6.39258,16.11718-15.209,23.21923-23.73535,9.9961-12.00049,19.4375-23.33545,31.76612-27.34277,11.65039-3.78858,25.6582-.30713,40.48828,3.377C233.09375,32.26094,244.56738,35.11152,256,35.11152s22.90625-2.85058,34.002-5.60693c14.8291-3.68457,28.83692-7.16455,40.48828-3.37744,12.32911,4.00732,21.771,15.34277,31.76709,27.34375,7.10157,8.52588,14.44532,17.34179,23.21827,23.73388,8.90918,6.49121,19.65234,10.82715,30.0415,15.02051,14.38477,5.80567,27.97217,11.28906,35.46826,21.60108,7.39356,10.17041,8.42627,24.73632,9.519,40.15771.79688,11.24756,1.6211,22.87793,5.06446,33.49463,3.28467,10.12646,9.31445,19.70947,15.14551,28.97754C489.08936,229.76631,497,242.33857,497,255.65693,497,268.97578,489.08936,281.54756,480.71436,294.8581Z"/></svg>