<svg xmlns="http://www.w3.org/2000/svg" viewBox="0 0 26 26"><g transform="translate(0 -1026.362)"><circle cx="13" cy="1039.362" r="13" fill="#3dcdd1" fill-rule="evenodd"/><path fill="#fff" d="m 9.359375,0.18945312 -1.4570312,0.8046875 -1.5,-0.72070312 -0.7929688,1.4648437 -1.6523438,0.203125 0.1269532,1.6601563 -1.2792969,1.0644531 1.0039063,1.328125 -0.5019532,1.5878906 1.5625,0.5742188 0.4375,1.6074219 0.6953125,-0.15625 0,6.2031251 2,-2.666016 1.9999999,2.666016 0,-6.3671876 0.980469,0.1601562 0.09961,-0.4648437 L 11.328125,7.9765625 12.857422,7.3164062 12.267578,5.7578125 13.195312,4.3769531 11.857422,3.3847656 11.892578,1.71875 10.230469,1.609375 9.359375,0.18945312 Z M 9.0078125,1.5273438 9.6484375,2.5722656 10.873047,2.6542969 10.847656,3.8789062 11.833984,4.609375 11.148438,5.6289062 11.583984,6.7753906 10.457031,7.2636719 10.201172,8.4609375 8.9921875,8.2636719 8.1289062,9.1347656 7.21875,8.3125 6.0214844,8.578125 5.6992188,7.3945312 4.5488281,6.9726562 4.9179688,5.8027344 4.1777344,4.8242188 5.1210938,4.0390625 5.0273438,2.8164062 6.2460938,2.6660156 6.828125,1.5878906 7.9335938,2.1191406 9.0078125,1.5273438 Z M 8.0019531,2.8105469 c -1.3747895,0 -2.5,1.1252 -2.5,2.5 0,1.3748 1.1252105,2.5 2.5,2.5 1.3747896,0 2.4999999,-1.1252 2.4999999,-2.5 0,-1.3748 -1.1252103,-2.5 -2.4999999,-2.5 z m 0,1 c 0.8343495,0 1.5,0.6656 1.5,1.5 0,0.8343 -0.6656505,1.5 -1.5,1.5 -0.8343494,0 -1.5,-0.6657 -1.5,-1.5 0,-0.8344 0.6656506,-1.5 1.5,-1.5 z m -1,5.6542969 1.1660157,1.0527342 0.8339843,-0.8437499 0,3.1347659 -1,-1.332032 -1,1.333985 0,-3.3457032 z" color="#000" font-family="sans-serif" font-weight="400" overflow="visible" transform="translate(5 1031.362)" style="line-height:normal;text-indent:0;text-align:start;text-decoration-line:none;text-decoration-style:solid;text-decoration-color:#000;text-transform:none;block-progression:tb;isolation:auto;mix-blend-mode:normal"/></g></svg>