<svg xmlns="http://www.w3.org/2000/svg" version="1.1" xmlns:xlink="http://www.w3.org/1999/xlink" xmlns:svgjs="http://svgjs.com/svgjs" width="1440" height="560" preserveAspectRatio="none" viewBox="0 0 1440 560"><g mask="url(&quot;#SvgjsMask1005&quot;)" fill="none"><rect width="1440" height="560" x="0" y="0" fill="rgba(35, 37, 68, 1)"></rect><path d="M0,374.609C70.325,366.297,137.687,345.192,196.338,305.508C254.017,266.482,305.461,215.922,330.547,150.956C354.913,87.855,342.556,19.085,332.78,-47.847C323.025,-114.637,317.586,-185.88,273.843,-237.287C229.955,-288.863,157.271,-297.868,95.817,-326.323C21.957,-360.522,-43.254,-433.589,-123.725,-421.37C-204.483,-409.107,-263.73,-335.088,-306.156,-265.286C-344.917,-201.514,-348.546,-124.847,-349.312,-50.223C-349.996,16.411,-329.322,77.849,-310.332,141.724C-288.121,216.431,-290.956,308.956,-228.618,355.737C-166.194,402.582,-77.506,383.77,0,374.609" fill="#1c1e36"></path><path d="M1440 907.885C1506.155 907.694 1563.68 872.78 1624.901 847.712 1700.6309999999999 816.703 1811.284 819.4169999999999 1841.643 743.424 1872.429 666.362 1786.164 592.362 1758.114 514.262 1736.637 454.46299999999997 1733.583 389.398 1696.0729999999999 338.11199999999997 1656.509 284.018 1601.987 244.15300000000002 1540.709 217.01600000000002 1472.88 186.97699999999998 1398.813 156.64499999999998 1326.834 174.59300000000002 1253.996 192.755 1209.339 261.229 1155.132 313.15999999999997 1094.981 370.786 1003.4870000000001 413.08299999999997 991.802 495.55899999999997 980.116 578.041 1048.329 649.317 1098.032 716.171 1139.652 772.153 1193.562 814.671 1254.41 848.784 1312.213 881.1890000000001 1373.733 908.077 1440 907.885" fill="#2a2c52"></path></g><defs><mask id="SvgjsMask1005"><rect width="1440" height="560" fill="#ffffff"></rect></mask></defs></svg>